<?xml version="1.0" encoding="utf-8"?>
<!-- Generator: Adobe Illustrator 16.0.0, SVG Export Plug-In . SVG Version: 6.00 Build 0)  -->
<!DOCTYPE svg PUBLIC "-//W3C//DTD SVG 1.1//EN" "http://www.w3.org/Graphics/SVG/1.1/DTD/svg11.dtd">
<svg version="1.1" id="Layer_1" xmlns="http://www.w3.org/2000/svg" xmlns:xlink="http://www.w3.org/1999/xlink" x="0px" y="0px"
	 width="188px" height="35px" viewBox="0 0 188 35" enable-background="new 0 0 188 35" xml:space="preserve">
<linearGradient id="SVGID_1_" gradientUnits="userSpaceOnUse" x1="76.1831" y1="18.0459" x2="44.3731" y2="10.3206">
	<stop  offset="0" style="stop-color:#F4831F"/>
	<stop  offset="0.3925" style="stop-color:#FBB040"/>
	<stop  offset="1" style="stop-color:#ED4F23"/>
</linearGradient>
<path fill="url(#SVGID_1_)" d="M46.869,18.456c-1.618,0-2.762-0.274-3.435-0.817c-0.673-0.546-1.009-1.396-1.009-2.555v-1.508
	c0-1.174,0.344-2.014,1.035-2.515c0.689-0.503,1.809-0.755,3.359-0.755h4.752c0.68,0,1.2,0.057,1.557,0.166
	c0.358,0.11,0.664,0.234,0.919,0.369V9.233c0-0.647-0.196-1.071-0.587-1.276c-0.393-0.205-1.056-0.307-1.992-0.307h-7.97V4.66h8.404
	c1.124,0,2.042,0.116,2.757,0.346c0.715,0.23,1.273,0.541,1.674,0.934c0.399,0.391,0.677,0.85,0.831,1.379
	c0.153,0.527,0.229,1.09,0.229,1.686v9.452c-0.493,0-0.97-0.159-1.431-0.474c-0.459-0.314-0.756-0.881-0.894-1.697
	c-0.203,0.628-0.595,1.148-1.174,1.559c-0.58,0.408-1.38,0.612-2.402,0.612H46.869z M54.048,12.811
	c-0.29-0.12-0.623-0.214-0.996-0.281c-0.376-0.068-0.877-0.102-1.507-0.102h-4.164c-0.545,0-0.937,0.105-1.176,0.318
	c-0.239,0.214-0.357,0.618-0.357,1.215c0,0.578,0.119,0.979,0.357,1.2c0.239,0.221,0.622,0.33,1.149,0.33h4.164
	c0.614,0,1.162-0.102,1.647-0.306s0.778-0.596,0.881-1.175V12.811z"/>
<linearGradient id="SVGID_2_" gradientUnits="userSpaceOnUse" x1="77.5225" y1="12.5356" x2="45.7105" y2="4.8099">
	<stop  offset="0" style="stop-color:#F4831F"/>
	<stop  offset="0.3925" style="stop-color:#FBB040"/>
	<stop  offset="1" style="stop-color:#ED4F23"/>
</linearGradient>
<path fill="url(#SVGID_2_)" d="M75.416,15.723v2.987h-1.978c-1.738,0-2.98-0.558-3.729-1.673c-0.75-1.117-1.124-2.771-1.124-4.969
	V7.604h-1.099V4.66h1.099h3.422h3.408v2.943h-3.408v4.465c0,1.227,0.187,2.141,0.562,2.746c0.375,0.605,0.997,0.908,1.865,0.908
	H75.416z"/>
<path fill="#FFFFFF" d="M149.128,15.723v2.986h-1.979c-1.738,0-2.981-0.557-3.729-1.672c-0.751-1.117-1.124-2.771-1.124-4.969V7.604
	h-1.098V4.66h1.098h3.423h3.409v2.943h-3.409v4.465c0,1.227,0.187,2.141,0.563,2.746c0.374,0.605,0.996,0.908,1.864,0.908H149.128z"
	/>
<rect x="76.827" y="4.66" fill="#FFFFFF" width="3.423" height="14.05"/>
<rect x="150.484" y="4.66" fill="#FFFFFF" width="3.423" height="14.05"/>
<rect x="105.835" y="4.66" fill="#FFFFFF" width="3.422" height="14.05"/>
<path fill="#FFFFFF" d="M110.806,18.711v-2.984l8.354-7.84h-8.354V4.66h13.207v3.227l-8.277,7.737l7.88-0.016v3.087L110.806,18.711z
	"/>
<path fill="#FFFFFF" d="M129.305,18.916c-1.619,0-2.765-0.271-3.436-0.817c-0.674-0.545-1.01-1.397-1.01-2.554v-1.51
	c0-1.174,0.344-2.013,1.035-2.516c0.689-0.501,1.809-0.754,3.358-0.754h4.753c0.679,0,1.199,0.057,1.558,0.168
	c0.355,0.109,0.662,0.233,0.918,0.369V9.509c0-0.646-0.195-1.072-0.587-1.277c-0.391-0.203-1.057-0.306-1.992-0.306h-8.43V4.66
	h8.863c1.125,0,2.044,0.116,2.759,0.346c0.715,0.23,1.272,0.541,1.673,0.934c0.4,0.392,0.679,0.852,0.831,1.379
	c0.154,0.527,0.229,1.09,0.229,1.686v9.912c-0.493,0-0.969-0.157-1.429-0.473c-0.461-0.315-0.758-0.881-0.895-1.699
	c-0.204,0.629-0.596,1.15-1.175,1.559s-1.379,0.613-2.401,0.613H129.305z M136.481,13.27c-0.29-0.118-0.622-0.213-0.996-0.279
	c-0.374-0.068-0.877-0.104-1.506-0.104h-4.163c-0.547,0-0.938,0.106-1.177,0.32c-0.239,0.213-0.358,0.617-0.358,1.212
	c0,0.58,0.119,0.979,0.358,1.202c0.239,0.221,0.622,0.33,1.149,0.33h4.163c0.614,0,1.164-0.102,1.647-0.307
	c0.485-0.202,0.78-0.596,0.882-1.174V13.27z"/>
<linearGradient id="SVGID_3_" gradientUnits="userSpaceOnUse" x1="76.8838" y1="15.1729" x2="45.0712" y2="7.447">
	<stop  offset="0" style="stop-color:#F4831F"/>
	<stop  offset="0.3925" style="stop-color:#FBB040"/>
	<stop  offset="1" style="stop-color:#ED4F23"/>
</linearGradient>
<path fill="url(#SVGID_3_)" d="M62.563,9.928V9.813l0.017-0.016c0.174-1.241,1.238-2.196,2.526-2.196
	c0.076,0,0.152,0.005,0.226,0.011h0.806V4.676c0-0.005-0.171-0.016-0.263-0.016c-0.766,0-1.405,0.158-2,0.474
	c-0.598,0.315-1.311,0.823-1.311,1.521v-1.93h-3.437v14.022h3.437v-8.364c-0.006-0.075-0.012-0.15-0.012-0.229
	C62.551,10.078,62.556,10.002,62.563,9.928z"/>
<path fill="#FFFFFF" d="M104.01,7.771c-0.146-0.697-0.403-1.277-0.774-1.742c-0.369-0.465-0.873-0.81-1.509-1.033
	c-0.637-0.223-1.454-0.336-2.452-0.336h-1.213c-1.083,0-1.943,0.207-2.58,0.62c-0.637,0.413-1.084,1.085-1.341,2.013
	c-0.293-0.979-0.813-1.664-1.562-2.052c-0.748-0.388-1.785-0.581-3.109-0.581h-1.083c-0.929,0-1.661,0.186-2.194,0.557
	c-0.532,0.369-0.946,0.855-1.238,1.457V4.66h-3.226v13.937h2.683h0.612V9.135c0-0.816,0.662-1.478,1.479-1.478h0.293h2.509
	c0.626,0.006,1.079,0.13,1.371,0.368c0.029,0.026,0.061,0.049,0.089,0.078c0.271,0.275,0.41,0.691,0.41,1.254v9.239h0.013h1.026
	h2.291V9.357c0-0.584,0.146-1.016,0.438-1.29c0.294-0.274,0.802-0.413,1.523-0.413h2.503c0.413,0,0.744,0.064,0.994,0.193
	c0.249,0.129,0.438,0.311,0.568,0.543c0.129,0.232,0.215,0.512,0.257,0.838c0.043,0.328,0.065,0.68,0.065,1.059v8.31h3.38v-8.362
	C104.229,9.289,104.157,8.468,104.01,7.771z"/>
<g>
	<path fill="#FFFFFF" d="M182.067,18.656v-8.91c0-0.73-0.139-1.275-0.417-1.633c-0.279-0.356-0.784-0.535-1.516-0.535h-4.548
		c-0.505,0-0.888,0.109-1.148,0.326c-0.261,0.219-0.462,0.563-0.601,1.033v9.719h-3.477V4.547h3.346v2.038
		c0.382-0.749,0.827-1.276,1.332-1.581c0.505-0.304,1.176-0.457,2.012-0.457h3.084c1.026,0,1.89,0.113,2.586,0.34
		c0.697,0.227,1.255,0.574,1.672,1.045c0.419,0.471,0.719,1.059,0.902,1.764s0.274,1.538,0.274,2.495v8.466H182.067z"/>
</g>
<path fill="#FFFFFF" d="M165.663,4.531h-6.976c-1.808,0-3.272,1.465-3.272,3.271l0.021,7.627c0,1.807,1.465,3.271,3.272,3.271h6.976
	c1.807,0,3.271-1.465,3.271-3.271l-0.021-7.627C168.935,5.996,167.47,4.531,165.663,4.531z M165.933,13.816
	c0,1.028-0.833,1.861-1.86,1.861h-3.749c-1.029,0-1.862-0.833-1.862-1.861l-0.021-4.399c0-1.028,0.833-1.862,1.862-1.862h3.749
	c1.027,0,1.86,0.834,1.86,1.862L165.933,13.816z"/>
<g>
	<path fill="#7C221C" d="M22.158,20.879c0-0.001-0.001-0.002-0.001-0.003c0-0.002-0.002-0.003-0.002-0.003
		c0-0.002-0.001-0.004-0.002-0.004c-0.001-0.002-0.002-0.004-0.003-0.005c-0.073-0.122-0.152-0.249-0.232-0.381
		c-0.011-0.017-0.02-0.031-0.03-0.048c-0.005-0.009-0.011-0.018-0.016-0.024c-0.089-0.146-0.183-0.296-0.279-0.449
		c-0.101-0.16-0.205-0.322-0.311-0.491c-0.072-0.114-0.147-0.232-0.221-0.349c-0.036-0.057-0.071-0.112-0.106-0.17
		c0,0-0.001,0-0.001-0.002c-0.002-0.001-0.003-0.003-0.004-0.006c-0.001-0.001-0.003-0.003-0.004-0.005
		c0-0.002-0.003-0.005-0.005-0.008c-0.429-0.674-0.897-1.412-1.371-2.186c-0.474-0.772-0.953-1.58-1.401-2.395
		c-0.449-0.817-0.869-1.642-1.224-2.449c-0.355-0.807-0.646-1.596-0.839-2.341l0.501,2.218c-0.317-0.742-0.582-1.473-0.762-2.164
		l0.846,3.506c0.159,0.611,0.397,1.258,0.687,1.916c0.289,0.66,0.629,1.33,0.994,1.994c0.365,0.663,0.752,1.316,1.136,1.944
		c0.384,0.626,0.763,1.222,1.111,1.768c0.055,0.086,0.108,0.174,0.162,0.259c0.054,0.083,0.107,0.169,0.159,0.25
		c0.052,0.084,0.104,0.165,0.155,0.245c0.05,0.079,0.099,0.159,0.147,0.236l0.054-0.314c0.009,0.016,0.019,0.03,0.028,0.044
		c0.081,0.13,0.16,0.256,0.235,0.377c0.018,0.028,0.035,0.056,0.053,0.087c0.058,0.093,0.116,0.188,0.168,0.276l0.378,0.631
		l0.47-1.172L22.158,20.879z"/>
	<path fill="#7C221C" d="M32.243,30.649c-0.086,0.055-0.173,0.105-0.262,0.152c-0.031,0.016-0.062,0.029-0.092,0.046
		c-0.059,0.029-0.117,0.059-0.178,0.086c-0.038,0.016-0.075,0.03-0.114,0.046c-0.055,0.021-0.111,0.044-0.168,0.064
		c-0.038,0.011-0.076,0.024-0.113,0.036c-0.061,0.02-0.121,0.037-0.181,0.053c-0.047,0.013-0.094,0.026-0.142,0.035
		c-0.018,0.005-0.035,0.009-0.052,0.012c-0.082,0.018-0.165,0.033-0.248,0.045c-0.005,0-0.011,0.002-0.017,0.002
		c-0.076,0.012-0.153,0.083-0.229,0.088c-0.021,0.002-0.042,0.068-0.063,0.068h-0.013l-0.041-0.078
		c-0.016,0-0.032-0.047-0.049-0.046c-0.016,0-0.032,0.079-0.049,0.079c-0.016,0.002-0.033,0.045-0.048,0.045h-0.049
		c-0.039,0-0.078-0.059-0.116-0.061c-0.035,0-0.07-0.013-0.104-0.002c-0.049-0.004-0.097-0.036-0.146-0.041
		c-0.005,0-0.01-0.017-0.017-0.018c-0.085-0.061-0.17-0.13-0.251-0.197c-0.193-0.156-0.374-0.331-0.542-0.518
		s-0.324-0.392-0.463-0.606l-1.203-1.853l-0.056-0.105c-0.01-0.014-0.021-0.028-0.03-0.043c-0.01-0.014-0.021-0.025-0.03-0.041
		c-0.01-0.014-0.021-0.026-0.03-0.04c-0.01-0.015-0.021-0.028-0.031-0.041c-0.045-0.062-0.094-0.12-0.141-0.182
		c-0.041-0.053-0.08-0.108-0.121-0.161c-0.017-0.02-0.034-0.037-0.048-0.057c-0.017-0.02-0.032-0.042-0.048-0.061
		c-0.058-0.071-0.12-0.139-0.18-0.208c-0.044-0.053-0.085-0.105-0.13-0.154c-0.011-0.013-0.023-0.022-0.033-0.035
		c-0.012-0.013-0.022-0.028-0.034-0.039c-0.075-0.083-0.155-0.161-0.233-0.24c-0.043-0.044-0.085-0.092-0.129-0.138
		c-0.006-0.004-0.012-0.009-0.018-0.014c-0.006-0.008-0.012-0.013-0.018-0.02c-0.135-0.131-0.325-0.257-0.466-0.379
		c-0.001-0.002-0.057-0.002-0.057-0.004v-0.07h0.104c-0.113,0-0.228-0.157-0.344-0.248c-0.117-0.094-0.236-0.164-0.356-0.249
		c-0.241-0.172-0.489-0.324-0.745-0.473c-0.138-0.079-0.279-0.15-0.42-0.224c-0.122-0.061-0.244-0.119-0.368-0.176
		c-0.134-0.062-0.269-0.118-0.407-0.175c0-0.001-0.001,0-0.001-0.001c-0.073-0.028-0.147-0.051-0.22-0.079
		c-0.066-0.024-0.132-0.072-0.198-0.072h-0.001c-0.017,0-0.034,0.05-0.051,0.045c0.003-0.007-0.002-0.012-0.01-0.018
		c-0.001,0.004-0.004,0.005-0.006,0.009c-0.025-0.009-0.05-0.02-0.075-0.03c-0.026-0.004-0.044-0.006-0.038-0.006h0.026
		c-0.12-0.047-0.241-0.102-0.362-0.137c-0.086-0.026-0.172-0.066-0.258-0.089c-0.109-0.029-0.218-0.061-0.328-0.086
		c-0.152-0.033-0.304-0.068-0.456-0.095c-0.263-0.044-0.525-0.08-0.79-0.104s-0.529-0.034-0.793-0.034c-0.063,0-0.125-0.002-0.188,0
		c-0.062,0.001-0.124,0.27-0.186,0.272c-0.046,0.002,0.102-0.735,0.056-0.735l-0.191,0.202c-0.013,0-0.036,0.54-0.047,0.54
		c-0.062,0.006-0.123-0.125-0.184-0.12c-0.085,0.009-0.17-0.051-0.255-0.04c-0.012,0-0.024-0.031-0.036-0.03
		c-0.011,0.002-0.021-0.016-0.031-0.015c-0.107,0.012-0.213,0.021-0.317,0.036c-0.033,0.005-0.063,0.006-0.095,0.01
		c-0.029,0.007-0.057,0.01-0.086,0.016c-0.043,0.007-0.088,0.013-0.131,0.021c-0.098,0.019-0.196,0.201-0.292,0.224
		c-0.003,0.001-0.006,0.163-0.009,0.163h-0.005c-0.004,0-0.008-0.157-0.011-0.156c-0.18,0.043-0.357,0.012-0.533,0.068
		c-0.056,0.017-0.112-0.003-0.168,0.017c-0.127,0.043-0.253,0.069-0.378,0.119c-0.033,0.014-0.067,0.014-0.1,0.028
		c-0.024,0.01-0.046,0.018-0.07,0.027c-0.14,0.061-0.279,0.124-0.416,0.193c-0.033,0.018-0.067,0.031-0.1,0.047
		c-0.008,0.004-0.015,0.008-0.022,0.012c-0.16,0.084-0.317,0.175-0.473,0.272c-0.013,0.007-0.026,0.015-0.039,0.021
		c-0.033,0.021-0.066,0.046-0.099,0.068c-0.12,0.077-0.238,0.159-0.355,0.243c-0.053,0.039-0.105,0.077-0.158,0.117
		c-0.124,0.094-0.246,0.192-0.368,0.295c-0.025,0.021-0.052,0.04-0.077,0.063c-0.009,0.008-0.018,0.015-0.027,0.023
		c-0.017,0.015-0.035,0.029-0.051,0.043c-0.14,0.123-0.276,0.252-0.413,0.386c-0.028,0.027-0.056,0.058-0.084,0.087
		c-0.126,0.125-0.249,0.255-0.371,0.39c-0.019,0.021-0.039,0.039-0.057,0.06c-0.007,0.008-0.014,0.017-0.021,0.025
		c-0.007,0.006-0.014,0.015-0.021,0.022c-0.007,0.008-0.014,0.017-0.021,0.024c-0.007,0.008-0.014,0.016-0.021,0.024
		c-0.043,0.047-0.086,0.099-0.129,0.147c-0.003,0.005-0.006,0.009-0.009,0.012c-0.002,0.002-0.003,0.004-0.005,0.007
		c-0.038,0.046-0.075,0.09-0.113,0.134c-0.042,0.054-0.085,0.104-0.126,0.157c-0.042,0.053-0.084,0.105-0.127,0.159
		c-0.029,0.038-0.057,0.073-0.085,0.111c-0.028,0.037-0.057,0.075-0.083,0.112c-0.02,0.026-0.039,0.053-0.059,0.08
		c-0.001,0.004-0.003,0.005-0.005,0.008c-0.002,0.003-0.004,0.006-0.005,0.008c-0.003,0.005-0.008,0.011-0.013,0.017
		c-0.026,0.036-0.054,0.075-0.08,0.113c-0.028,0.039-0.054,0.08-0.081,0.119c-0.013,0.02-0.027,0.037-0.04,0.058
		c-0.005,0.008-0.01,0.018-0.016,0.025c-0.007,0.011-0.015,0.021-0.022,0.034c-0.051,0.079-0.102,0.157-0.15,0.237
		c-0.003,0.006-0.007,0.013-0.01,0.018c0,0.001-0.001,0.001-0.002,0.002c-0.001,0.002-0.004,0.007-0.006,0.012
		c-0.042,0.069-0.082,0.138-0.121,0.206c-0.011,0.021-0.022,0.043-0.034,0.063c-0.007,0.012-0.014,0.022-0.021,0.036
		c-0.006,0.011-0.012,0.021-0.019,0.033s-0.013,0.024-0.019,0.035c-0.005,0.011-0.012,0.024-0.017,0.035
		c-0.006,0.012-0.013,0.021-0.019,0.033l-0.68,1.046c-0.146,0.226-0.312,0.438-0.49,0.634c-0.178,0.196-0.372,0.375-0.578,0.537
		c-0.054,0.043-0.111,0.081-0.167,0.12c-0.015,0.007-0.031,0.094-0.047,0.095S9.5,31.383,9.484,31.383H9.386
		c-0.038,0-0.075-0.057-0.113-0.057c-0.036-0.002-0.073,0.001-0.109,0.005c-0.014-0.002-0.028-0.034-0.041-0.035
		c-0.01-0.002-0.02-0.019-0.029-0.019c-0.08-0.006-0.158-0.023-0.237-0.034c-0.013-0.003-0.027-0.008-0.04-0.01
		c-0.078-0.012-0.155-0.027-0.232-0.044c-0.019-0.004-0.038-0.01-0.056-0.013c-0.074-0.017-0.149-0.038-0.223-0.06
		c-0.018-0.006-0.036-0.01-0.054-0.016c-0.062-0.021-0.124-0.042-0.185-0.063c-0.019-0.008-0.039-0.015-0.058-0.022
		c-0.073-0.026-0.144-0.057-0.216-0.09c-0.017-0.007-0.035,0.279-0.052,0.272c-0.073-0.035-0.145,0.184-0.216,0.184
		c-0.001,0-0.001,0-0.001,0c-0.082,0-0.161-0.389-0.241-0.439c-0.154-0.1-0.299-0.358-0.435-0.479
		c-0.004-0.004-0.009-0.081-0.013-0.085c-0.126-0.111-0.243-0.27-0.352-0.394c-0.035-0.043-0.07-0.103-0.104-0.146
		c-0.022-0.026-0.044-0.063-0.065-0.09c-0.041-0.055-0.079-0.115-0.116-0.171c-0.017-0.026-0.035-0.051-0.051-0.076
		C6.095,29.424,6.045,29.339,6,29.255C5.99,29.236,5.981,29.218,5.973,29.2c-0.034-0.063-0.067-0.131-0.097-0.196
		c-0.012-0.027-0.023-0.056-0.035-0.083c-0.024-0.057-0.049-0.114-0.07-0.173c-0.013-0.035-0.023-0.07-0.035-0.104
		c-0.018-0.053-0.036-0.106-0.052-0.159c-0.011-0.037-0.019-0.074-0.028-0.11c-0.014-0.053-0.029-0.105-0.04-0.159
		c-0.016-0.074-0.03-0.148-0.042-0.223c-0.002-0.016-0.004-0.033-0.007-0.051c-0.008-0.067-0.017-0.138-0.023-0.209
		c-0.002-0.013,0.037-0.028,0.036-0.042c-0.006-0.082,0.03-0.16,0.03-0.241v-0.039c0-0.082-0.038-0.163-0.032-0.246
		c0-0.009-0.019-0.016-0.019-0.021c0.006-0.087,0.004-0.175,0.017-0.262l-2.822-0.157c0.264,0.611,0.05,1.445-0.637,1.695
		c0.009,0.037,0.019,0.075,0.028,0.113c0.01,0.039,0.018,0.08,0.03,0.121c0.002,0.006,0.004,0.013,0.007,0.021
		c0.02,0.067,0.042,0.133,0.064,0.197c0.013,0.039,0.024,0.076,0.038,0.114c0.002,0.005,0.004,0.01,0.006,0.016
		c0.026,0.069,0.056,0.14,0.085,0.209c0.014,0.034,0.026,0.068,0.041,0.101c0.001,0.003,0.002,0.006,0.004,0.009
		c0.001,0.003,0.002,0.006,0.003,0.008c0.096,0.211,0.206,0.412,0.331,0.606c0.003,0.006,0.007,0.013,0.011,0.019
		c0.02,0.03,0.042,0.059,0.063,0.09c0.043,0.063,0.087,0.126,0.134,0.188c0.008,0.012,0.015,0.022,0.023,0.034
		c0.02,0.025,0.042,0.049,0.063,0.074c0.032,0.04,0.063,0.082,0.096,0.121c0.017,0.019,0.035,0.035,0.051,0.057
		c0.012,0.014,0.022,0.027,0.035,0.039c0.018,0.021,0.038,0.039,0.056,0.058c0.052,0.057,0.105,0.111,0.16,0.164
		c0.018,0.019,0.033,0.036,0.052,0.054c0.032,0.03,0.065,0.06,0.098,0.089c0.013,0.012,0.025,0.022,0.038,0.034
		c0.007,0.006,0.014,0.013,0.022,0.02c0.053,0.046,0.108,0.092,0.164,0.136c0.015,0.012,0.031,0.022,0.046,0.034
		c0.016,0.013,0.031,0.023,0.048,0.035c0.025,0.021,0.051,0.041,0.076,0.06c0.058,0.04,0.119,0.083,0.179,0.121
		c0.036,0.024,0.074,0.047,0.112,0.07c0.037,0.022,0.075,0.045,0.112,0.068c0.024,0.012,0.047,0.024,0.071,0.039
		c0.002,0,0.004,0.003,0.006,0.004c0.012,0.006,0.024,0.015,0.037,0.021c0.039,0.019,0.077,0.041,0.116,0.061
		c0.038,0.019,0.077,0.036,0.116,0.054c0.013,0.006,0.024,0.014,0.037,0.02c0.006,0.003,0.013,0.004,0.02,0.009
		c0.01,0.004,0.019,0.009,0.028,0.014c0.068,0.029,0.136,0.059,0.206,0.086c0.014,0.005,0.029,0.011,0.044,0.016
		c0.018,0.009,0.036,0.014,0.054,0.02c0.037,0.014,0.073,0.028,0.109,0.041c0.052,0.018,0.104,0.032,0.156,0.05
		c0.009,0,0.018,0.005,0.027,0.008c0.003,0.001,0.006,0.001,0.01,0.004c0.005,0.001,0.011,0.003,0.017,0.004
		c0.063,0.02,0.126,0.036,0.19,0.052c0.028,0.007,0.057,0.012,0.085,0.018c0.018,0.004,0.037,0.01,0.056,0.014
		c0.017,0.003,0.034,0.008,0.051,0.012c0.064,0.013,0.128,0.023,0.194,0.034c0.017,0.004,0.035,0.005,0.053,0.008
		c0.005,0.001,0.01,0.003,0.015,0.003c0.007,0.002,0.014,0.002,0.021,0.002c0.036,0.006,0.07,0.011,0.105,0.015
		c0.046,0.005,0.093,0.026,0.14,0.031c0.046,0.004,0.093,0.024,0.14,0.026c0.046,0.005,0.093-0.163,0.14-0.162
		c0.047,0.004,0.094-0.131,0.141-0.131h0.061c0.021,0,0.04,0.128,0.061,0.128c0.018,0,0.036,0.047,0.054,0.033
		c0.026-0.002,0.054,0.047,0.08,0.046l-0.014,0.029c0.045-0.001,0.09-0.117,0.135-0.12c0.012-0.001,0.025-0.116,0.037-0.116H7.21
		c0.013,0,0.027,0.123,0.041,0.121c0.077-0.009,0.154,0.044,0.23,0.034c0.03-0.006,0.059,0.02,0.087,0.015
		c0.009,0,0.018,0.014,0.027,0.013c0.009-0.001,0.017,0.004,0.026,0.002c0.029-0.005,0.058-0.006,0.086-0.01
		c0.076-0.016,0.15-0.03,0.225-0.048c0.016-0.004,0.031-0.008,0.047-0.011c0.004-0.001,0.008-0.001,0.013-0.004
		c0.004,0,0.009-0.003,0.015-0.004c0.012-0.003,0.026-0.006,0.039-0.01c0.038-0.01,0.075-0.021,0.112-0.032
		c0.038-0.01,0.075-0.021,0.111-0.034c0.037-0.011,0.074-0.024,0.111-0.036l1.511-0.533c-0.191,0.148-0.392,0.286-0.603,0.406
		c-0.232,0.133-0.474,0.247-0.724,0.34c0.754-0.282,1.509-0.566,2.263-0.852c0.202-0.074,0.397-0.167,0.584-0.272
		c0.186-0.107,0.364-0.229,0.533-0.363c0.169-0.136,0.327-0.284,0.473-0.447c0.146-0.162,0.281-0.336,0.402-0.522l0.551-0.85
		c0.033-0.064,0.069-0.127,0.106-0.189c0.025-0.044,0.049-0.089,0.074-0.132c0.029-0.046,0.059-0.095,0.089-0.141
		c0.024-0.04,0.047-0.078,0.072-0.114c0.037-0.057,0.075-0.113,0.113-0.167c0.023-0.035,0.046-0.068,0.069-0.102
		c0.062-0.086,0.125-0.173,0.189-0.259c0.384-0.492,0.78-0.919,1.191-1.282c0.412-0.362,0.84-0.662,1.289-0.9
		c0.448-0.237,0.917-0.414,1.409-0.53s1.011-0.174,1.556-0.174c0.208,0,0.415,0.009,0.621,0.027
		c0.207,0.018,0.413,0.045,0.618,0.081c0.206,0.035,0.41,0.08,0.613,0.133c0.204,0.054,0.406,0.116,0.607,0.187
		c0.221,0.079,0.438,0.164,0.649,0.262c0.212,0.096,0.418,0.202,0.618,0.318c0.201,0.116,0.396,0.242,0.584,0.376
		c0.189,0.133,0.373,0.276,0.549,0.429c0.127,0.111,0.251,0.224,0.372,0.345c0.122,0.12,0.24,0.247,0.355,0.38
		c0.116,0.133,0.23,0.272,0.342,0.417c0.112,0.147,0.222,0.303,0.331,0.465l0.923,1.421c0.114,0.176,0.241,0.342,0.377,0.494
		c0.136,0.154,0.284,0.298,0.44,0.428c0.156,0.129,0.321,0.247,0.496,0.352c0.172,0.105,0.354,0.196,0.541,0.275
		c0.673,0.278,1.345,0.558,2.017,0.837c-0.233-0.096-0.458-0.211-0.673-0.341c-0.216-0.13-0.421-0.275-0.616-0.438
		c-0.002-0.003-0.005-0.005-0.007-0.007c0.256,0.1,0.513,0.197,0.769,0.298c0.256,0.099,0.505,0.196,0.727,0.283
		c0.033,0.013,0.066,0.024,0.099,0.036c0.033,0.012,0.066,0.023,0.1,0.036c0.033,0.01,0.066,0.021,0.1,0.031
		c0.033,0.01,0.067-0.016,0.102-0.006c0.006,0.002,0.011-0.031,0.017-0.031h0.001h0.004c0.056,0,0.112,0.068,0.169,0.081
		c0.064,0.018,0.127-0.04,0.193-0.026c0.016,0.002,0.033-0.055,0.05-0.055h0.017c0.007,0,0.015,0.091,0.023,0.092
		c0.035,0.007,0.07,0.057,0.106,0.063c0.066,0.01,0.132,0.042,0.198,0.049c0.047,0.006,0.094,0.038,0.142,0.042
		c0.047,0.003,0.094,0.032,0.142,0.035s0.095-0.157,0.143-0.156c0.048,0.001,0.096-0.125,0.144-0.125h0.061
		c0.021,0,0.041,0.127,0.061,0.127c0.02-0.002,0.04,0.029,0.059,0.024c0.019-0.001,0.037,0.05,0.056,0.049l0.006,0.027
		c0.021-0.001,0.043,0.009,0.064,0.008c0.028-0.002,0.056,0.002,0.083,0c0.028-0.002,0.057,0.001,0.084-0.002
		c0.059-0.006,0.117-0.013,0.175-0.021c0.013-0.002,0.026-0.106,0.039-0.108c0.004,0,0.008-0.104,0.01-0.104h0.007
		c0.077,0,0.153,0.08,0.229,0.065c0.02-0.004,0.039,0.043,0.059,0.038c0.026-0.005,0.053,0.015,0.079,0.009
		c0.029-0.007,0.06,0,0.089-0.009c0.025-0.006,0.05-0.008,0.076-0.014c0.041-0.011,0.082-0.016,0.122-0.028
		c0.037-0.011,0.074-0.023,0.112-0.035c0.022-0.007,0.046-0.012,0.069-0.02c0.02-0.006,0.038-0.015,0.056-0.021
		c0.077-0.027,0.154-0.056,0.229-0.086c0.028-0.011,0.057-0.021,0.084-0.033c0.014-0.006,0.027-0.012,0.04-0.019
		c0.017-0.008,0.036-0.015,0.054-0.022c0.062-0.028,0.123-0.06,0.184-0.092c0.027-0.014,0.054-0.024,0.08-0.038
		c0.006-0.005,0.012-0.006,0.019-0.01c0.112-0.061,0.221-0.124,0.328-0.192L32.243,30.649z"/>
	<radialGradient id="SVGID_4_" cx="0.8823" cy="3.0981" r="36.4051" gradientUnits="userSpaceOnUse">
		<stop  offset="0" style="stop-color:#F4831F"/>
		<stop  offset="0.3925" style="stop-color:#FBB040"/>
		<stop  offset="1" style="stop-color:#ED4F23"/>
	</radialGradient>
	<path fill="url(#SVGID_4_)" d="M19.429,2.447c0.292,0.037,1.282,0.855,2.667,2.211c1.384,1.357,3.164,3.25,5.034,5.434
		c1.872,2.184,3.836,4.658,5.587,7.174c1.751,2.516,3.29,5.075,4.31,7.428c0.409,0.771,0.579,1.521,0.582,2.227
		c0.003,0.704-0.159,1.361-0.414,1.95c-0.255,0.587-0.602,1.104-0.968,1.528c-0.365,0.424-0.75,0.752-1.08,0.962
		c-0.197,0.127-0.401,0.236-0.61,0.332c-0.21,0.096-0.425,0.176-0.645,0.24c-0.22,0.063-0.444,0.112-0.671,0.144
		c-0.227,0.034-0.457,0.049-0.689,0.049c-0.41,0-0.811-0.051-1.196-0.148s-0.755-0.243-1.102-0.431
		c-0.347-0.188-0.668-0.419-0.961-0.688c-0.292-0.269-0.553-0.577-0.775-0.919l-1.203-1.852l-0.056-0.105
		c-0.124-0.174-0.252-0.342-0.382-0.508c-0.133-0.164-0.268-0.325-0.407-0.479c-0.139-0.155-0.282-0.306-0.43-0.452
		c-0.147-0.144-0.299-0.284-0.454-0.416c-0.226-0.196-0.459-0.378-0.7-0.551c-0.241-0.171-0.489-0.332-0.746-0.48
		c-0.255-0.147-0.518-0.283-0.787-0.407c-0.271-0.123-0.546-0.234-0.828-0.333c-0.257-0.092-0.515-0.168-0.775-0.236
		s-0.521-0.125-0.783-0.17c-0.263-0.044-0.525-0.078-0.79-0.101c-0.264-0.023-0.529-0.034-0.793-0.034
		c-0.699,0-1.363,0.073-1.994,0.224c-0.631,0.149-1.231,0.374-1.804,0.677c-0.574,0.304-1.121,0.685-1.646,1.147
		c-0.526,0.464-1.03,1.008-1.519,1.635c-0.089,0.115-0.175,0.229-0.258,0.346c-0.083,0.116-0.163,0.232-0.238,0.351
		c-0.076,0.116-0.148,0.235-0.217,0.351c-0.069,0.118-0.134,0.234-0.194,0.35l-0.68,1.046c-0.223,0.343-0.484,0.652-0.776,0.923
		c-0.293,0.27-0.616,0.502-0.963,0.69c-0.347,0.188-0.717,0.334-1.103,0.433c-0.386,0.099-0.788,0.15-1.197,0.15
		c-0.231,0-0.462-0.019-0.688-0.05c-0.228-0.032-0.452-0.084-0.67-0.147c-0.22-0.064-0.435-0.146-0.644-0.242
		c-0.209-0.098-0.412-0.209-0.607-0.336c-0.389-0.251-0.731-0.555-1.024-0.899c-0.292-0.344-0.534-0.725-0.719-1.133
		c-0.186-0.407-0.314-0.84-0.38-1.285c-0.067-0.444-0.071-0.901-0.007-1.357c0.06-0.2,0.124-0.399,0.194-0.597
		c0.069-0.197,0.144-0.394,0.224-0.587c0.079-0.193,0.163-0.386,0.252-0.572c0.089-0.188,0.182-0.374,0.279-0.556l1.152-1.769
		c0.625-0.809,1.291-1.517,1.996-2.123c0.706-0.607,1.449-1.115,2.231-1.521s1.602-0.712,2.458-0.916
		c0.856-0.205,1.748-0.308,2.676-0.308c0.375,0,0.747,0.018,1.117,0.05c0.37,0.035,0.738,0.084,1.104,0.148
		c0.364,0.066,0.727,0.149,1.084,0.247c0.358,0.1,0.713,0.215,1.064,0.346c0.377,0.142,0.746,0.299,1.105,0.475
		c0.36,0.174,0.71,0.368,1.051,0.577c0.342,0.211,0.674,0.438,0.995,0.683c0.322,0.245,0.634,0.507,0.936,0.783l0.673,0.616
		l-0.47-0.783c-0.085-0.143-0.175-0.29-0.271-0.443s-0.195-0.314-0.298-0.478s-0.209-0.33-0.317-0.502
		c-0.11-0.172-0.22-0.346-0.333-0.524c-0.429-0.674-0.897-1.412-1.371-2.186c-0.474-0.772-0.953-1.58-1.401-2.395
		c-0.449-0.817-0.869-1.642-1.224-2.449c-0.355-0.807-0.646-1.596-0.839-2.341c-0.086-0.625-0.1-1.231-0.04-1.819
		c0.06-0.589,0.192-1.158,0.396-1.708c0.204-0.55,0.48-1.079,0.828-1.589c0.348-0.51,0.766-0.998,1.255-1.466
		c0.102-0.093,0.191-0.171,0.273-0.237c0.083-0.064,0.158-0.118,0.228-0.16c0.07-0.041,0.135-0.074,0.198-0.095
		C19.306,2.467,19.367,2.451,19.429,2.447z"/>
	<path fill="none" d="M19.429,2.447c0.292,0.037,1.282,0.855,2.667,2.211c1.384,1.357,3.164,3.25,5.034,5.434
		c1.872,2.184,3.836,4.658,5.587,7.174c1.751,2.516,3.29,5.075,4.31,7.428c0.409,0.771,0.579,1.521,0.582,2.227
		c0.003,0.704-0.159,1.361-0.414,1.95c-0.255,0.587-0.602,1.104-0.968,1.528c-0.365,0.424-0.75,0.752-1.08,0.962
		c-0.197,0.127-0.401,0.236-0.61,0.332c-0.21,0.096-0.425,0.176-0.645,0.24c-0.22,0.063-0.444,0.112-0.671,0.144
		c-0.227,0.034-0.457,0.049-0.689,0.049c-0.41,0-0.811-0.051-1.196-0.148s-0.755-0.243-1.102-0.431
		c-0.347-0.188-0.668-0.419-0.961-0.688c-0.292-0.269-0.553-0.577-0.775-0.919l-1.203-1.852l-0.056-0.105
		c-0.124-0.174-0.252-0.342-0.382-0.508c-0.133-0.164-0.268-0.325-0.407-0.479c-0.139-0.155-0.282-0.306-0.43-0.452
		c-0.147-0.144-0.299-0.284-0.454-0.416c-0.226-0.196-0.459-0.378-0.7-0.551c-0.241-0.171-0.489-0.332-0.746-0.48
		c-0.255-0.147-0.518-0.283-0.787-0.407c-0.271-0.123-0.546-0.234-0.828-0.333c-0.257-0.092-0.515-0.168-0.775-0.236
		s-0.521-0.125-0.783-0.17c-0.263-0.044-0.525-0.078-0.79-0.101c-0.264-0.023-0.529-0.034-0.793-0.034
		c-0.699,0-1.363,0.073-1.994,0.224c-0.631,0.149-1.231,0.374-1.804,0.677c-0.574,0.304-1.121,0.685-1.646,1.147
		c-0.526,0.464-1.03,1.008-1.519,1.635c-0.089,0.115-0.175,0.229-0.258,0.346c-0.083,0.116-0.163,0.232-0.238,0.351
		c-0.076,0.116-0.148,0.235-0.217,0.351c-0.069,0.118-0.134,0.234-0.194,0.35l-0.68,1.046c-0.223,0.343-0.484,0.652-0.776,0.923
		c-0.293,0.27-0.616,0.502-0.963,0.69c-0.347,0.188-0.717,0.334-1.103,0.433c-0.386,0.099-0.788,0.15-1.197,0.15
		c-0.231,0-0.462-0.019-0.688-0.05c-0.228-0.032-0.452-0.084-0.67-0.147c-0.22-0.064-0.435-0.146-0.644-0.242
		c-0.209-0.098-0.412-0.209-0.607-0.336c-0.389-0.251-0.731-0.555-1.024-0.899c-0.292-0.344-0.534-0.725-0.719-1.133
		c-0.186-0.407-0.314-0.84-0.38-1.285c-0.067-0.444-0.071-0.901-0.007-1.357c0.06-0.2,0.124-0.399,0.194-0.597
		c0.069-0.197,0.144-0.394,0.224-0.587c0.079-0.193,0.163-0.386,0.252-0.572c0.089-0.188,0.182-0.374,0.279-0.556l1.152-1.769
		c0.625-0.809,1.291-1.517,1.996-2.123c0.706-0.607,1.449-1.115,2.231-1.521s1.602-0.712,2.458-0.916
		c0.856-0.205,1.748-0.308,2.676-0.308c0.375,0,0.747,0.018,1.117,0.05c0.37,0.035,0.738,0.084,1.104,0.148
		c0.364,0.066,0.727,0.149,1.084,0.247c0.358,0.1,0.713,0.215,1.064,0.346c0.377,0.142,0.746,0.299,1.105,0.475
		c0.36,0.174,0.71,0.368,1.051,0.577c0.342,0.211,0.674,0.438,0.995,0.683c0.322,0.245,0.634,0.507,0.936,0.783l0.673,0.616
		l-0.47-0.783c-0.085-0.143-0.175-0.29-0.271-0.443s-0.195-0.314-0.298-0.478s-0.209-0.33-0.317-0.502
		c-0.11-0.172-0.22-0.346-0.333-0.524c-0.429-0.674-0.897-1.412-1.371-2.186c-0.474-0.772-0.953-1.58-1.401-2.395
		c-0.449-0.817-0.869-1.642-1.224-2.449c-0.355-0.807-0.646-1.596-0.839-2.341c-0.086-0.625-0.1-1.231-0.04-1.819
		c0.06-0.589,0.192-1.158,0.396-1.708c0.204-0.55,0.48-1.079,0.828-1.589c0.348-0.51,0.766-0.998,1.255-1.466
		c0.102-0.093,0.191-0.171,0.273-0.237c0.083-0.064,0.158-0.118,0.228-0.16c0.07-0.041,0.135-0.074,0.198-0.095
		C19.306,2.467,19.367,2.451,19.429,2.447z"/>
	<g>
		<g>
			<linearGradient id="SVGID_5_" gradientUnits="userSpaceOnUse" x1="1.7261" y1="17.2939" x2="37.8735" y2="17.2939">
				<stop  offset="0" style="stop-color:#E5AB1D"/>
				<stop  offset="0.3656" style="stop-color:#ED4F23"/>
				<stop  offset="0.6452" style="stop-color:#E4B21D"/>
				<stop  offset="1" style="stop-color:#ED4F23"/>
			</linearGradient>
			<path fill="url(#SVGID_5_)" d="M37.264,24.578c0.429,0.811,0.606,1.598,0.61,2.338c0.004,0.738-0.167,1.432-0.434,2.049
				c-0.267,0.618-0.632,1.163-1.016,1.606c-0.383,0.445-0.787,0.793-1.133,1.013c-0.208,0.132-0.423,0.248-0.645,0.35
				c-0.221,0.101-0.449,0.184-0.681,0.252c-0.232,0.068-0.468,0.119-0.707,0.153c-0.24,0.035-0.482,0.054-0.725,0.054
				c-0.432,0-0.855-0.056-1.262-0.158c-0.407-0.104-0.797-0.258-1.162-0.455c-0.365-0.198-0.705-0.443-1.013-0.728
				c-0.307-0.283-0.582-0.608-0.816-0.97l-1.146-1.762c-0.135-0.202-0.272-0.395-0.412-0.575c-0.138-0.184-0.279-0.356-0.423-0.521
				c-0.145-0.163-0.292-0.319-0.441-0.469c-0.151-0.151-0.305-0.293-0.463-0.429c-0.219-0.188-0.446-0.367-0.681-0.534
				c-0.235-0.165-0.477-0.321-0.725-0.465c-0.249-0.143-0.505-0.275-0.768-0.396s-0.531-0.229-0.806-0.325
				c-0.249-0.086-0.5-0.164-0.752-0.23c-0.253-0.065-0.506-0.122-0.761-0.166s-0.51-0.077-0.767-0.1
				c-0.256-0.024-0.514-0.034-0.771-0.034c-0.677,0-1.319,0.07-1.931,0.216c-0.611,0.146-1.192,0.363-1.75,0.658
				c-0.557,0.296-1.087,0.666-1.599,1.119c-0.511,0.449-1.002,0.979-1.479,1.59c-0.085,0.111-0.168,0.225-0.248,0.337
				c-0.08,0.114-0.157,0.228-0.231,0.341c-0.074,0.116-0.145,0.23-0.212,0.346c-0.068,0.113-0.133,0.23-0.192,0.345l-0.685,1.055
				c-0.235,0.362-0.512,0.688-0.82,0.973c-0.309,0.287-0.65,0.532-1.016,0.73c-0.366,0.2-0.757,0.354-1.164,0.457
				c-0.408,0.104-0.831,0.159-1.263,0.159c-0.244,0-0.487-0.017-0.726-0.053c-0.24-0.035-0.476-0.087-0.708-0.156
				c-0.23-0.068-0.458-0.154-0.678-0.256c-0.221-0.102-0.435-0.22-0.641-0.353c-0.41-0.266-0.771-0.587-1.08-0.949
				c-0.309-0.362-0.564-0.766-0.76-1.197c-0.195-0.43-0.332-0.89-0.401-1.361c-0.071-0.472-0.076-0.957-0.008-1.441
				c0.064-0.211,0.132-0.421,0.204-0.626c0.072-0.205,0.149-0.408,0.23-0.606c0.082-0.2,0.168-0.395,0.26-0.59
				c0.091-0.193,0.188-0.384,0.289-0.57l1.161-1.787c0.641-0.829,1.323-1.554,2.044-2.175c0.723-0.623,1.484-1.142,2.284-1.555
				c0.8-0.416,1.638-0.728,2.514-0.935c0.876-0.209,1.789-0.313,2.738-0.313c0.382,0,0.764,0.016,1.143,0.05
				c0.378,0.034,0.754,0.085,1.127,0.151c0.373,0.067,0.743,0.15,1.109,0.252c0.366,0.1,0.728,0.217,1.085,0.351
				c0.319,0.117,0.632,0.249,0.938,0.394s0.607,0.3,0.901,0.469c0.294,0.168,0.582,0.348,0.863,0.539
				c0.282,0.193,0.556,0.397,0.824,0.612c-0.059-0.096-0.12-0.193-0.183-0.293c-0.063-0.1-0.126-0.201-0.191-0.304
				c-0.065-0.101-0.131-0.205-0.198-0.311c-0.067-0.104-0.134-0.212-0.202-0.319c-0.431-0.678-0.902-1.417-1.377-2.194
				c-0.477-0.775-0.958-1.589-1.411-2.412c-0.452-0.822-0.874-1.656-1.233-2.473c-0.358-0.816-0.654-1.617-0.851-2.375
				c-0.088-0.652-0.102-1.283-0.041-1.895c0.062-0.611,0.198-1.201,0.409-1.771c0.21-0.57,0.495-1.119,0.854-1.646
				c0.359-0.526,0.792-1.033,1.298-1.516c0.112-0.104,0.214-0.191,0.308-0.266c0.095-0.072,0.182-0.133,0.267-0.18
				c0.085-0.047,0.165-0.082,0.247-0.106c0.082-0.026,0.163-0.04,0.248-0.049c0.369,0.045,1.422,0.901,2.855,2.302
				s3.247,3.346,5.138,5.568c1.892,2.222,3.861,4.723,5.602,7.232C34.771,19.799,36.284,22.32,37.264,24.578z M35.146,31.36
				c0.33-0.21,0.715-0.538,1.08-0.962c0.366-0.424,0.713-0.94,0.968-1.528c0.254-0.589,0.417-1.246,0.414-1.95
				c-0.003-0.705-0.173-1.455-0.582-2.227c-1.02-2.352-2.558-4.912-4.31-7.428c-1.75-2.516-3.715-4.99-5.587-7.174
				c-1.871-2.182-3.65-4.076-5.034-5.434c-1.385-1.354-2.374-2.174-2.667-2.211c-0.062,0.004-0.123,0.02-0.185,0.04
				c-0.063,0.021-0.128,0.054-0.198,0.095c-0.07,0.042-0.145,0.096-0.228,0.16c-0.083,0.066-0.172,0.145-0.273,0.237
				c-0.489,0.468-0.908,0.956-1.255,1.466c-0.347,0.51-0.624,1.039-0.828,1.589c-0.204,0.55-0.336,1.119-0.396,1.708
				c-0.06,0.588-0.046,1.194,0.039,1.82c0.193,0.744,0.484,1.533,0.839,2.34c0.355,0.808,0.775,1.632,1.224,2.449
				c0.448,0.814,0.927,1.623,1.401,2.395c0.473,0.773,0.942,1.512,1.371,2.186c0.112,0.179,0.223,0.353,0.333,0.524
				c0.109,0.172,0.215,0.339,0.318,0.502c0.103,0.164,0.203,0.324,0.298,0.478c0.095,0.154,0.186,0.301,0.271,0.443l0.47,0.783
				l-0.673-0.616c-0.301-0.276-0.613-0.538-0.936-0.783c-0.321-0.244-0.653-0.472-0.995-0.683c-0.341-0.209-0.691-0.403-1.051-0.577
				c-0.36-0.176-0.728-0.333-1.105-0.473c-0.351-0.133-0.706-0.248-1.064-0.348c-0.358-0.098-0.72-0.181-1.086-0.247
				c-0.365-0.064-0.732-0.113-1.103-0.148c-0.37-0.032-0.743-0.048-1.117-0.048c-0.928,0-1.82,0.103-2.676,0.306
				c-0.856,0.204-1.677,0.51-2.458,0.916c-0.782,0.406-1.526,0.914-2.231,1.521c-0.705,0.606-1.37,1.314-1.996,2.123l-1.152,1.769
				c-0.098,0.182-0.191,0.367-0.279,0.556c-0.089,0.187-0.173,0.379-0.252,0.572c-0.08,0.193-0.154,0.39-0.224,0.587
				c-0.07,0.197-0.135,0.396-0.194,0.597c-0.065,0.456-0.06,0.913,0.007,1.357c0.066,0.445,0.195,0.878,0.38,1.285
				c0.185,0.408,0.428,0.789,0.719,1.133c0.293,0.345,0.635,0.648,1.024,0.899c0.195,0.127,0.398,0.238,0.607,0.336
				c0.209,0.097,0.424,0.178,0.644,0.242c0.219,0.063,0.443,0.115,0.671,0.147c0.226,0.031,0.457,0.05,0.688,0.05
				c0.41,0,0.811-0.052,1.197-0.15c0.386-0.099,0.756-0.245,1.103-0.433c0.348-0.188,0.67-0.421,0.963-0.69
				c0.292-0.271,0.553-0.579,0.776-0.923l0.68-1.046c0.061-0.115,0.125-0.231,0.194-0.35c0.068-0.115,0.141-0.234,0.217-0.351
				c0.076-0.118,0.156-0.234,0.238-0.351c0.083-0.117,0.169-0.23,0.258-0.346c0.489-0.627,0.993-1.171,1.519-1.635
				c0.525-0.463,1.072-0.844,1.646-1.147c0.573-0.303,1.173-0.527,1.804-0.677c0.631-0.15,1.294-0.224,1.994-0.224
				c0.264,0,0.529,0.011,0.792,0.034c0.265,0.022,0.528,0.057,0.791,0.101c0.262,0.045,0.523,0.102,0.783,0.17
				c0.26,0.068,0.518,0.146,0.775,0.236c0.282,0.099,0.557,0.21,0.828,0.333c0.27,0.124,0.532,0.26,0.787,0.407
				c0.256,0.148,0.505,0.31,0.746,0.48c0.241,0.173,0.474,0.354,0.7,0.551c0.155,0.132,0.307,0.272,0.454,0.416
				c0.147,0.147,0.29,0.297,0.428,0.454c0.138,0.155,0.271,0.316,0.4,0.483c0.129,0.165,0.252,0.336,0.371,0.511l0.076,0.097
				l1.203,1.852c0.223,0.342,0.484,0.65,0.775,0.919c0.292,0.269,0.614,0.499,0.961,0.688c0.346,0.188,0.716,0.333,1.102,0.431
				s0.786,0.148,1.196,0.148c0.232,0,0.461-0.015,0.688-0.049c0.228-0.031,0.452-0.08,0.671-0.144
				c0.22-0.064,0.436-0.145,0.646-0.24C34.746,31.597,34.95,31.487,35.146,31.36"/>
		</g>
	</g>
</g>
<path fill="#FFFFFF" stroke="#FFFFFF" stroke-width="0.25" stroke-miterlimit="10" d="M48.94,26.127
	c0,0.483-0.077,0.923-0.232,1.318c-0.154,0.396-0.373,0.736-0.655,1.02c-0.282,0.283-0.619,0.504-1.012,0.66
	c-0.393,0.155-0.83,0.233-1.31,0.233h-2.43v-6.462h2.43c0.48,0,0.917,0.078,1.31,0.234s0.73,0.375,1.012,0.658
	c0.282,0.284,0.5,0.625,0.655,1.021C48.863,25.209,48.94,25.647,48.94,26.127z M47.959,26.127c0-0.383-0.053-0.728-0.158-1.032
	s-0.254-0.563-0.448-0.774c-0.193-0.211-0.427-0.373-0.702-0.483c-0.275-0.11-0.582-0.167-0.92-0.167h-1.467v4.914h1.467
	c0.339,0,0.646-0.055,0.92-0.166c0.274-0.111,0.508-0.272,0.702-0.484c0.194-0.211,0.343-0.469,0.448-0.771
	S47.959,26.514,47.959,26.127z"/>
<path fill="#FFFFFF" stroke="#FFFFFF" stroke-width="0.25" stroke-miterlimit="10" d="M51.829,29.358h-0.963v-6.462h0.963V29.358z"
	/>
<path fill="#FFFFFF" stroke="#FFFFFF" stroke-width="0.25" stroke-miterlimit="10" d="M59.416,26.213v2.52
	c-0.327,0.234-0.675,0.409-1.044,0.525c-0.369,0.115-0.771,0.172-1.206,0.172c-0.522,0-0.994-0.08-1.415-0.242
	s-0.781-0.389-1.078-0.68c-0.297-0.291-0.526-0.639-0.687-1.044c-0.16-0.405-0.241-0.851-0.241-1.337
	c0-0.488,0.077-0.936,0.232-1.343c0.154-0.407,0.375-0.755,0.664-1.044s0.637-0.515,1.046-0.676c0.41-0.16,0.869-0.24,1.379-0.24
	c0.258,0,0.497,0.02,0.718,0.059c0.22,0.039,0.425,0.095,0.614,0.166c0.189,0.072,0.363,0.158,0.524,0.26
	c0.161,0.1,0.31,0.213,0.448,0.34l-0.274,0.432c-0.042,0.068-0.098,0.112-0.167,0.131c-0.069,0.018-0.144,0.001-0.225-0.05
	c-0.078-0.046-0.164-0.098-0.259-0.157c-0.094-0.061-0.207-0.115-0.337-0.167c-0.13-0.051-0.283-0.095-0.457-0.13
	c-0.174-0.037-0.38-0.055-0.617-0.055c-0.354,0-0.673,0.058-0.958,0.174c-0.285,0.115-0.528,0.281-0.729,0.496
	c-0.201,0.217-0.355,0.477-0.463,0.781s-0.162,0.646-0.162,1.023c0,0.396,0.057,0.752,0.171,1.064
	c0.114,0.314,0.275,0.579,0.484,0.797c0.208,0.217,0.462,0.383,0.761,0.497c0.298,0.114,0.632,0.171,1.001,0.171
	c0.144,0,0.278-0.008,0.403-0.024s0.244-0.04,0.358-0.069c0.114-0.031,0.224-0.068,0.331-0.113s0.212-0.094,0.317-0.148v-1.354
	h-0.954c-0.06,0-0.109-0.019-0.146-0.054c-0.038-0.036-0.056-0.081-0.056-0.135v-0.545H59.416z"/>
<path fill="#FFFFFF" stroke="#FFFFFF" stroke-width="0.25" stroke-miterlimit="10" d="M62.391,29.358h-0.963v-6.462h0.963V29.358z"
	/>
<path fill="#FFFFFF" stroke="#FFFFFF" stroke-width="0.25" stroke-miterlimit="10" d="M69.109,23.697h-2.052v5.661h-0.954v-5.661
	h-2.061v-0.801h5.067V23.697z"/>
<path fill="#FFFFFF" stroke="#FFFFFF" stroke-width="0.25" stroke-miterlimit="10" d="M75.458,29.358h-0.738
	c-0.084,0-0.153-0.021-0.207-0.063c-0.054-0.041-0.093-0.096-0.117-0.162l-0.571-1.498h-2.849l-0.572,1.498
	c-0.021,0.058-0.06,0.109-0.117,0.156c-0.057,0.046-0.126,0.069-0.207,0.069h-0.738l2.574-6.462h0.967L75.458,29.358z
	 M73.564,26.951l-0.958-2.507c-0.069-0.171-0.138-0.387-0.207-0.647c-0.033,0.129-0.067,0.248-0.101,0.359
	c-0.035,0.111-0.068,0.21-0.102,0.297l-0.954,2.498H73.564z"/>
<path fill="#FFFFFF" stroke="#FFFFFF" stroke-width="0.25" stroke-miterlimit="10" d="M80.683,28.553v0.806h-3.699v-6.462h0.958
	v5.656H80.683z"/>
<path fill="#FF7829" stroke="#FF7829" stroke-width="0.25" stroke-miterlimit="10" d="M91.856,22.896v6.462H91.02V24.76
	c0-0.069,0.002-0.143,0.007-0.221s0.01-0.158,0.016-0.238l-2.151,3.946c-0.075,0.147-0.19,0.22-0.347,0.22H88.41
	c-0.156,0-0.27-0.072-0.342-0.22l-2.192-3.96c0.018,0.168,0.027,0.325,0.027,0.473v4.599h-0.842v-6.462h0.711
	c0.084,0,0.149,0.008,0.196,0.025c0.046,0.016,0.091,0.062,0.133,0.137l2.16,3.869c0.042,0.078,0.081,0.161,0.117,0.248
	c0.036,0.088,0.071,0.174,0.104,0.262c0.063-0.178,0.137-0.349,0.221-0.514l2.12-3.865c0.039-0.075,0.082-0.121,0.128-0.137
	c0.047-0.018,0.112-0.025,0.196-0.025H91.856z"/>
<path fill="#FF7829" stroke="#FF7829" stroke-width="0.25" stroke-miterlimit="10" d="M99.502,29.358h-0.738
	c-0.084,0-0.152-0.021-0.207-0.063c-0.054-0.041-0.093-0.096-0.117-0.162l-0.57-1.498h-2.85l-0.571,1.498
	c-0.021,0.058-0.06,0.109-0.117,0.156c-0.057,0.046-0.126,0.069-0.207,0.069h-0.738l2.575-6.462h0.967L99.502,29.358z
	 M97.607,26.951l-0.959-2.507c-0.068-0.171-0.138-0.387-0.207-0.647c-0.033,0.129-0.066,0.248-0.101,0.359s-0.068,0.21-0.102,0.297
	l-0.954,2.498H97.607z"/>
<path fill="#FF7829" stroke="#FF7829" stroke-width="0.25" stroke-miterlimit="10" d="M105.874,29.358h-0.854
	c-0.172,0-0.296-0.067-0.374-0.202l-1.598-2.241c-0.051-0.075-0.106-0.128-0.167-0.159c-0.06-0.032-0.149-0.048-0.27-0.048h-0.625
	v2.65h-0.959v-6.462h1.863c0.417,0,0.775,0.043,1.078,0.128c0.301,0.086,0.55,0.207,0.746,0.364c0.197,0.158,0.342,0.348,0.438,0.57
	c0.094,0.222,0.141,0.471,0.141,0.746c0,0.225-0.034,0.438-0.104,0.635c-0.068,0.198-0.17,0.376-0.303,0.533
	c-0.135,0.158-0.297,0.293-0.488,0.407c-0.192,0.114-0.41,0.201-0.652,0.261c0.119,0.072,0.223,0.173,0.311,0.302L105.874,29.358z
	 M102.859,26.01c0.246,0,0.463-0.029,0.65-0.09c0.188-0.06,0.344-0.145,0.47-0.254s0.221-0.24,0.284-0.392
	c0.063-0.151,0.094-0.318,0.094-0.501c0-0.373-0.122-0.652-0.367-0.842c-0.244-0.189-0.611-0.283-1.1-0.283h-0.904v2.361H102.859z"
	/>
<path fill="#FF7829" stroke="#FF7829" stroke-width="0.25" stroke-miterlimit="10" d="M108.38,25.691h0.315
	c0.113,0,0.206-0.015,0.276-0.043c0.07-0.029,0.134-0.078,0.191-0.146l2.057-2.39c0.065-0.081,0.134-0.138,0.202-0.169
	c0.069-0.031,0.154-0.047,0.257-0.047h0.819l-2.395,2.754c-0.061,0.078-0.119,0.141-0.178,0.189
	c-0.059,0.047-0.119,0.088-0.182,0.121c0.164,0.057,0.309,0.172,0.432,0.347l2.488,3.051h-0.832c-0.061,0-0.112-0.005-0.156-0.014
	c-0.043-0.009-0.08-0.021-0.111-0.038c-0.032-0.017-0.061-0.037-0.086-0.061c-0.025-0.024-0.049-0.053-0.07-0.086l-2.129-2.52
	c-0.029-0.039-0.06-0.072-0.09-0.1c-0.029-0.027-0.064-0.049-0.104-0.064c-0.039-0.018-0.084-0.029-0.135-0.037
	c-0.051-0.007-0.111-0.011-0.18-0.011h-0.392v2.93h-0.958v-6.462h0.958V25.691z"/>
<path fill="#FF7829" stroke="#FF7829" stroke-width="0.25" stroke-miterlimit="10" d="M118.168,28.58l-0.005,0.778h-4.005v-6.462
	h4.005v0.778h-3.042v2.048h2.448v0.752h-2.448v2.105H118.168z"/>
<path fill="#FF7829" stroke="#FF7829" stroke-width="0.25" stroke-miterlimit="10" d="M124.477,23.697h-2.053v5.661h-0.953v-5.661
	h-2.062v-0.801h5.067V23.697z"/>
<path fill="#FF7829" stroke="#FF7829" stroke-width="0.25" stroke-miterlimit="10" d="M127.091,29.358h-0.963v-6.462h0.963V29.358z"
	/>
<path fill="#FF7829" stroke="#FF7829" stroke-width="0.25" stroke-miterlimit="10" d="M134.695,22.896v6.462h-0.485
	c-0.075,0-0.138-0.014-0.187-0.04c-0.05-0.027-0.1-0.07-0.15-0.131l-3.65-4.721c0.006,0.081,0.012,0.16,0.016,0.238
	c0.005,0.078,0.008,0.152,0.008,0.221v4.433h-0.842v-6.462h0.494c0.084,0,0.147,0.01,0.189,0.029s0.088,0.063,0.14,0.133
	l3.658,4.725c-0.009-0.087-0.016-0.172-0.021-0.254c-0.004-0.082-0.006-0.16-0.006-0.232v-4.4H134.695z"/>
<path fill="#FF7829" stroke="#FF7829" stroke-width="0.25" stroke-miterlimit="10" d="M142.287,26.213v2.52
	c-0.326,0.234-0.675,0.409-1.044,0.525c-0.368,0.115-0.771,0.172-1.206,0.172c-0.521,0-0.994-0.08-1.415-0.242
	s-0.78-0.389-1.077-0.68c-0.298-0.291-0.526-0.639-0.688-1.044c-0.16-0.405-0.24-0.851-0.24-1.337c0-0.488,0.077-0.936,0.232-1.343
	c0.154-0.407,0.375-0.755,0.663-1.044s0.637-0.515,1.046-0.676c0.41-0.16,0.869-0.24,1.38-0.24c0.258,0,0.497,0.02,0.718,0.059
	s0.425,0.095,0.614,0.166c0.188,0.072,0.363,0.158,0.524,0.26c0.16,0.1,0.31,0.213,0.447,0.34l-0.274,0.432
	c-0.042,0.068-0.098,0.112-0.167,0.131c-0.068,0.018-0.144,0.001-0.225-0.05c-0.078-0.046-0.164-0.098-0.259-0.157
	c-0.095-0.061-0.207-0.115-0.337-0.167c-0.131-0.051-0.283-0.095-0.457-0.13c-0.174-0.037-0.38-0.055-0.617-0.055
	c-0.354,0-0.673,0.058-0.958,0.174c-0.285,0.115-0.528,0.281-0.729,0.496c-0.201,0.217-0.355,0.477-0.463,0.781
	s-0.162,0.646-0.162,1.023c0,0.396,0.057,0.752,0.171,1.064c0.114,0.314,0.275,0.579,0.483,0.797
	c0.209,0.217,0.463,0.383,0.762,0.497c0.298,0.114,0.631,0.171,1,0.171c0.145,0,0.279-0.008,0.403-0.024s0.243-0.04,0.358-0.069
	c0.113-0.031,0.224-0.068,0.33-0.113s0.213-0.094,0.317-0.148v-1.354h-0.954c-0.061,0-0.109-0.019-0.146-0.054
	c-0.037-0.036-0.057-0.081-0.057-0.135v-0.545H142.287z"/>
<path fill="#FF7829" stroke="#FF7829" stroke-width="0.25" stroke-miterlimit="10" d="M152.318,29.358h-0.738
	c-0.084,0-0.153-0.021-0.207-0.063c-0.055-0.041-0.094-0.096-0.117-0.162l-0.571-1.498h-2.849l-0.572,1.498
	c-0.021,0.058-0.06,0.109-0.116,0.156c-0.058,0.046-0.126,0.069-0.207,0.069h-0.738l2.574-6.462h0.968L152.318,29.358z
	 M150.424,26.951l-0.959-2.507c-0.068-0.171-0.139-0.387-0.207-0.647c-0.033,0.129-0.066,0.248-0.102,0.359
	c-0.034,0.111-0.068,0.21-0.102,0.297l-0.953,2.498H150.424z"/>
<path fill="#FF7829" stroke="#FF7829" stroke-width="0.25" stroke-miterlimit="10" d="M158.941,26.213v2.52
	c-0.326,0.234-0.675,0.409-1.044,0.525c-0.368,0.115-0.771,0.172-1.206,0.172c-0.521,0-0.994-0.08-1.415-0.242
	s-0.78-0.389-1.077-0.68c-0.298-0.291-0.526-0.639-0.688-1.044c-0.16-0.405-0.24-0.851-0.24-1.337c0-0.488,0.077-0.936,0.232-1.343
	c0.154-0.407,0.375-0.755,0.663-1.044s0.637-0.515,1.046-0.676c0.41-0.16,0.869-0.24,1.38-0.24c0.258,0,0.497,0.02,0.718,0.059
	s0.425,0.095,0.614,0.166c0.188,0.072,0.363,0.158,0.524,0.26c0.16,0.1,0.31,0.213,0.447,0.34l-0.274,0.432
	c-0.042,0.068-0.098,0.112-0.167,0.131c-0.068,0.018-0.144,0.001-0.225-0.05c-0.078-0.046-0.164-0.098-0.259-0.157
	c-0.095-0.061-0.207-0.115-0.337-0.167c-0.131-0.051-0.283-0.095-0.457-0.13c-0.174-0.037-0.38-0.055-0.617-0.055
	c-0.354,0-0.673,0.058-0.958,0.174c-0.285,0.115-0.528,0.281-0.729,0.496c-0.201,0.217-0.355,0.477-0.463,0.781
	s-0.162,0.646-0.162,1.023c0,0.396,0.057,0.752,0.171,1.064c0.114,0.314,0.275,0.579,0.483,0.797
	c0.209,0.217,0.463,0.383,0.762,0.497c0.298,0.114,0.631,0.171,1,0.171c0.145,0,0.279-0.008,0.403-0.024s0.243-0.04,0.358-0.069
	c0.113-0.031,0.224-0.068,0.33-0.113s0.213-0.094,0.317-0.148v-1.354h-0.954c-0.061,0-0.109-0.019-0.146-0.054
	c-0.037-0.036-0.057-0.081-0.057-0.135v-0.545H158.941z"/>
<path fill="#FF7829" stroke="#FF7829" stroke-width="0.25" stroke-miterlimit="10" d="M164.963,28.58l-0.005,0.778h-4.005v-6.462
	h4.005v0.778h-3.042v2.048h2.448v0.752h-2.448v2.105H164.963z"/>
<path fill="#FF7829" stroke="#FF7829" stroke-width="0.25" stroke-miterlimit="10" d="M172.158,22.896v6.462h-0.486
	c-0.074,0-0.137-0.014-0.187-0.04c-0.05-0.027-0.1-0.07-0.15-0.131l-3.649-4.721c0.006,0.081,0.012,0.16,0.016,0.238
	s0.007,0.152,0.007,0.221v4.433h-0.842v-6.462h0.495c0.084,0,0.146,0.01,0.189,0.029c0.041,0.02,0.088,0.063,0.139,0.133
	l3.658,4.725c-0.008-0.087-0.016-0.172-0.02-0.254s-0.007-0.16-0.007-0.232v-4.4H172.158z"/>
<path fill="#FF7829" stroke="#FF7829" stroke-width="0.25" stroke-miterlimit="10" d="M178.989,27.973
	c0.054,0,0.101,0.021,0.14,0.063l0.378,0.414c-0.265,0.313-0.586,0.554-0.966,0.725c-0.379,0.171-0.836,0.256-1.369,0.256
	c-0.469,0-0.893-0.08-1.271-0.242c-0.38-0.162-0.704-0.389-0.973-0.68c-0.268-0.291-0.477-0.639-0.623-1.044
	s-0.221-0.851-0.221-1.337c0-0.485,0.078-0.932,0.232-1.336c0.154-0.405,0.371-0.753,0.65-1.044c0.278-0.291,0.612-0.518,1-0.68
	c0.389-0.162,0.818-0.243,1.29-0.243c0.459,0,0.866,0.075,1.224,0.225c0.357,0.15,0.668,0.35,0.932,0.6l-0.314,0.445
	c-0.021,0.033-0.048,0.06-0.079,0.08c-0.032,0.021-0.073,0.032-0.124,0.032c-0.057,0-0.123-0.028-0.2-0.085
	c-0.076-0.058-0.177-0.121-0.302-0.191c-0.124-0.07-0.277-0.135-0.461-0.191s-0.411-0.086-0.684-0.086
	c-0.321,0-0.615,0.057-0.883,0.169c-0.267,0.112-0.496,0.274-0.69,0.485c-0.193,0.212-0.343,0.472-0.45,0.779
	c-0.105,0.307-0.159,0.654-0.159,1.041c0,0.394,0.056,0.743,0.167,1.049c0.11,0.307,0.264,0.565,0.459,0.779
	c0.194,0.213,0.424,0.375,0.688,0.485s0.549,0.167,0.855,0.167c0.186,0,0.354-0.012,0.502-0.034s0.285-0.056,0.409-0.102
	c0.124-0.045,0.242-0.103,0.353-0.173c0.111-0.07,0.221-0.155,0.329-0.254c0.024-0.021,0.05-0.039,0.077-0.053
	C178.931,27.979,178.959,27.973,178.989,27.973z"/>
<path fill="#FF7829" stroke="#FF7829" stroke-width="0.25" stroke-miterlimit="10" d="M183.709,26.803v2.556h-0.953v-2.556
	l-2.367-3.906h0.842c0.084,0,0.15,0.02,0.202,0.061c0.051,0.041,0.093,0.094,0.126,0.16l1.404,2.416
	c0.057,0.111,0.108,0.217,0.154,0.315c0.047,0.099,0.088,0.196,0.125,0.292c0.032-0.096,0.07-0.193,0.114-0.292
	s0.093-0.204,0.15-0.315l1.399-2.416c0.03-0.055,0.071-0.104,0.124-0.15c0.052-0.047,0.119-0.07,0.2-0.07h0.846L183.709,26.803z"/>
</svg>
